<!-- 
  File: logo.svg
  Description: Primary vector logo asset for TaskStream AI platform.
  Implements the brand identity in an SVG format with responsive and accessibility features.

  Requirements Addressed:
  1. User Interface Design (Design System Key):
     - Core brand asset using primary (#2563EB) and secondary (#64748B) colors.
     - Conforms to design system and responsive layout guidelines.
     - Ensures WCAG 2.1 AA accessibility standards.

  2. Web Application Design:
     - Adheres to color palette, spacing system, and responsiveness.
     - Scalable up to 256px max, down to 16px min.

  3. Accessibility Standards:
     - Provides ARIA labels, roles, title, and description tags.
     - Focusable set to false for assistive technologies.
     - Contrast ratio 4.5:1 compliance.

  Internal/External Imports: None
  Globals, Functions, Classes: None

  Export Details:
  - Exported as SVGElement with the following members:
    * viewBox (string): "0 0 48 48"
    * paths (SVGPathElement[]): Two main path elements representing the logo shape
    * title (SVGTitleElement): "TaskStream AI"
    * desc (SVGDescElement): "TaskStream AI platform logo representing intelligent project management"

  SVG Specifications:
  - Format: SVG
  - Dimensions:
    * viewBox: 0 0 48 48
    * preserveAspectRatio: xMidYMid meet
    * minSize: 16px, maxSize: 256px (applied via inline styles)
  - Color Scheme: Primary (#2563EB), Secondary (#64748B), Contrast ratio 4.5:1
  - Optimization: Minified, compressed, cleaned; Browser support: IE11+
  - Usage Contexts: TopBar, Favicon, Loading screens, Marketing, Docs, Emails, Mobile
  - Accessibility: aria_label, role=img, title, desc, focusable=false, screen_reader_support=true
  - Caching: cache-control=public, max-age=31536000, versioning=filename-based, etag=true
  - Performance:
    * max_file_size=2KB
    * path_optimization=true
    * rendering_priority=high
-->

<svg
  version="1.1"
  xmlns="http://www.w3.org/2000/svg"
  width="100%"
  height="100%"
  viewBox="0 0 48 48"
  preserveAspectRatio="xMidYMid meet"
  style="min-width:16px; max-width:256px;"
  role="img"
  aria-labelledby="logoTitle logoDesc"
  focusable="false"
>
  <!-- Title and Description for Accessibility (WCAG 2.1 AA) -->
  <title id="logoTitle">TaskStream AI</title>
  <desc id="logoDesc">
    TaskStream AI platform logo representing intelligent project management
  </desc>

  <!-- Primary Shape: Outer Circle (Primary Brand Color) -->
  <path
    fill="#2563EB"
    d="M24,2
       C36.1503,2,46,11.8497,46,24
       C46,36.1503,36.1503,46,24,46
       C11.8497,46,2,36.1503,2,24
       C2,11.8497,11.8497,2,24,2
       Z"
  />

  <!-- Secondary Shape: Inner Swirl (Secondary Brand Color) -->
  <path
    fill="#64748B"
    d="M34.5,14
       C32,11,27,10,24,16
       C22,20,26,23,29,24
       C32,24.5,34,27,32,30
       C29,34,22,33,20,26
       C18.6,20.6,15.7,16.4,13,15
       A20,20 0 0 0 24,42
       C35.0457,42,44,33.0457,44,22
       C44,18,42,15,34.5,14
       Z"
  />
</svg>